<?xml version="1.0" encoding="utf-8"?>
<!-- Generator: Adobe Illustrator 18.1.1, SVG Export Plug-In . SVG Version: 6.00 Build 0)  -->
<svg version="1.1" id="Layer_1" xmlns="http://www.w3.org/2000/svg" xmlns:xlink="http://www.w3.org/1999/xlink" x="0px" y="0px"
	 viewBox="0 0 612 792" enable-background="new 0 0 612 792" xml:space="preserve">
<g id="New_Symbol_106">
	<g>
		<path fill="#FFBD48" d="M494.9,599.6c-2.7,0-9.3,0-12-2.7L107.8,217.7c-6.7-5.3-6.7-14.6,0-21.3s14.6-6.7,21.3,0l375.2,375.2
			c6.7,6.7,6.7,14.6,0,21.3C504.2,599.6,498.9,599.6,494.9,599.6z"/>
		<path fill="#FFBD48" d="M119.7,599.6c-2.7,0-9.3,0-12-2.7c-6.7-6.7-6.7-14.6,0-21.3l375.2-376.5c6.7-6.7,14.6-6.7,21.3,0
			c6.7,6.7,6.7,14.6,0,21.3L129.1,596.9C125.1,599.6,122.4,599.6,119.7,599.6z"/>
	</g>
	<rect y="90" fill="none" width="612" height="612"/>
</g>
</svg>
